<svg xmlns="http://www.w3.org/2000/svg" viewBox="0 0 880 495" width="880" height="495" font-family="Helvetica, Arial, sans-serif" role="img" aria-label="Share of timezone border locations where timezonefinder and tzfpy differ on at least one side, against distance from the border">
<rect width="880" height="495" fill="#ffffff"/>
<text x="84" y="32" font-size="17" font-weight="600" fill="#28323a">Border locations affected by tzfpy simplification</text>
<text x="84" y="52" font-size="12.5" fill="#6b7a85">boundary release 2026c on both sides, tzfpy 1.3.3, 20000 paired locations per distance; both axes logarithmic</text>
<line x1="175" y1="116" x2="201" y2="116" stroke="#1f6feb" stroke-width="2.4"/>
<text x="209" y="120" font-size="12.5" fill="#28323a">any timezone border</text>
<line x1="360" y1="116" x2="386" y2="116" stroke="#c2570f" stroke-width="2.4" stroke-dasharray="7 5"/>
<text x="394" y="120" font-size="12.5" fill="#28323a">border of a land zone</text>
<circle cx="572" cy="116" r="4.5" fill="#ffffff" stroke="#6b7a85" stroke-width="1.8"/>
<text x="593" y="120" font-size="12.5" fill="#28323a">hollow: none found, so at most this</text>
<line x1="84" y1="433.0" x2="824" y2="433.0" stroke="#dde3e8" stroke-width="1"/>
<text x="74" y="437.0" font-size="12" text-anchor="end" fill="#6b7a85">0.01%</text>
<line x1="84" y1="382.1" x2="824" y2="382.1" stroke="#dde3e8" stroke-width="1"/>
<text x="74" y="386.1" font-size="12" text-anchor="end" fill="#6b7a85">0.05%</text>
<line x1="84" y1="360.2" x2="824" y2="360.2" stroke="#dde3e8" stroke-width="1"/>
<text x="74" y="364.2" font-size="12" text-anchor="end" fill="#6b7a85">0.1%</text>
<line x1="84" y1="309.4" x2="824" y2="309.4" stroke="#dde3e8" stroke-width="1"/>
<text x="74" y="313.4" font-size="12" text-anchor="end" fill="#6b7a85">0.5%</text>
<line x1="84" y1="287.5" x2="824" y2="287.5" stroke="#dde3e8" stroke-width="1"/>
<text x="74" y="291.5" font-size="12" text-anchor="end" fill="#6b7a85">1%</text>
<line x1="84" y1="236.6" x2="824" y2="236.6" stroke="#dde3e8" stroke-width="1"/>
<text x="74" y="240.6" font-size="12" text-anchor="end" fill="#6b7a85">5%</text>
<line x1="84" y1="214.8" x2="824" y2="214.8" stroke="#dde3e8" stroke-width="1"/>
<text x="74" y="218.8" font-size="12" text-anchor="end" fill="#6b7a85">10%</text>
<line x1="84" y1="163.9" x2="824" y2="163.9" stroke="#dde3e8" stroke-width="1"/>
<text x="74" y="167.9" font-size="12" text-anchor="end" fill="#6b7a85">50%</text>
<line x1="84" y1="142.0" x2="824" y2="142.0" stroke="#dde3e8" stroke-width="1"/>
<text x="74" y="146.0" font-size="12" text-anchor="end" fill="#6b7a85">100%</text>
<line x1="84.0" y1="433.0" x2="84.0" y2="438.0" stroke="#6b7a85" stroke-width="1"/>
<text x="84.0" y="455.0" font-size="11.5" text-anchor="middle" fill="#28323a">1 cm</text>
<line x1="187.4" y1="433.0" x2="187.4" y2="438.0" stroke="#6b7a85" stroke-width="1"/>
<text x="187.4" y="455.0" font-size="11.5" text-anchor="middle" fill="#28323a">5 cm</text>
<line x1="232.0" y1="433.0" x2="232.0" y2="438.0" stroke="#6b7a85" stroke-width="1"/>
<text x="232.0" y="455.0" font-size="11.5" text-anchor="middle" fill="#28323a">10 cm</text>
<line x1="335.4" y1="433.0" x2="335.4" y2="438.0" stroke="#6b7a85" stroke-width="1"/>
<text x="335.4" y="455.0" font-size="11.5" text-anchor="middle" fill="#28323a">50 cm</text>
<line x1="380.0" y1="433.0" x2="380.0" y2="438.0" stroke="#6b7a85" stroke-width="1"/>
<text x="380.0" y="455.0" font-size="11.5" text-anchor="middle" fill="#28323a">1 m</text>
<line x1="483.4" y1="433.0" x2="483.4" y2="438.0" stroke="#6b7a85" stroke-width="1"/>
<text x="483.4" y="455.0" font-size="11.5" text-anchor="middle" fill="#28323a">5 m</text>
<line x1="528.0" y1="433.0" x2="528.0" y2="438.0" stroke="#6b7a85" stroke-width="1"/>
<text x="528.0" y="455.0" font-size="11.5" text-anchor="middle" fill="#28323a">10 m</text>
<line x1="631.4" y1="433.0" x2="631.4" y2="438.0" stroke="#6b7a85" stroke-width="1"/>
<text x="631.4" y="455.0" font-size="11.5" text-anchor="middle" fill="#28323a">50 m</text>
<line x1="676.0" y1="433.0" x2="676.0" y2="438.0" stroke="#6b7a85" stroke-width="1"/>
<text x="676.0" y="455.0" font-size="11.5" text-anchor="middle" fill="#28323a">100 m</text>
<line x1="779.4" y1="433.0" x2="779.4" y2="438.0" stroke="#6b7a85" stroke-width="1"/>
<text x="779.4" y="455.0" font-size="11.5" text-anchor="middle" fill="#28323a">500 m</text>
<line x1="824.0" y1="433.0" x2="824.0" y2="438.0" stroke="#6b7a85" stroke-width="1"/>
<text x="824.0" y="455.0" font-size="11.5" text-anchor="middle" fill="#28323a">1 km</text>
<polyline points="84.0,152.5 187.4,153.7 232.0,154.7 335.4,161.2 380.0,163.4 483.4,168.7 528.0,174.2 631.4,219.4 676.0,338.4 779.4,420.2 824.0,420.2" fill="none" stroke="#1f6feb" stroke-width="2.4" stroke-linejoin="round"/>
<circle cx="84.0" cy="152.5" r="4" fill="#1f6feb"/>
<text x="84.0" y="172.5" font-size="12" text-anchor="start" fill="#1f6feb">71.8%</text>
<circle cx="187.4" cy="153.7" r="4" fill="#1f6feb"/>
<circle cx="232.0" cy="154.7" r="4" fill="#1f6feb"/>
<text x="232.0" y="174.7" font-size="12" text-anchor="middle" fill="#1f6feb">66.9%</text>
<circle cx="335.4" cy="161.2" r="4" fill="#1f6feb"/>
<circle cx="380.0" cy="163.4" r="4" fill="#1f6feb"/>
<text x="380.0" y="183.4" font-size="12" text-anchor="middle" fill="#1f6feb">50.8%</text>
<circle cx="483.4" cy="168.7" r="4" fill="#1f6feb"/>
<circle cx="528.0" cy="174.2" r="4" fill="#1f6feb"/>
<text x="528.0" y="194.2" font-size="12" text-anchor="middle" fill="#1f6feb">36.0%</text>
<circle cx="631.4" cy="219.4" r="4" fill="#1f6feb"/>
<circle cx="676.0" cy="338.4" r="4" fill="#1f6feb"/>
<text x="676.0" y="358.4" font-size="12" text-anchor="middle" fill="#1f6feb">0.20%</text>
<circle cx="779.4" cy="420.2" r="4.5" fill="#ffffff" stroke="#1f6feb" stroke-width="1.8"/>
<circle cx="824.0" cy="420.2" r="4.5" fill="#ffffff" stroke="#1f6feb" stroke-width="1.8"/>
<text x="824.0" y="404.2" font-size="12" text-anchor="end" fill="#1f6feb">&lt;0.015%</text>
<polyline points="84.0,145.5 187.4,145.2 232.0,146.2 335.4,152.7 380.0,154.6 483.4,160.2 528.0,165.5 631.4,210.2 676.0,329.1 779.4,410.0 824.0,409.2" fill="none" stroke="#c2570f" stroke-width="2.4" stroke-linejoin="round" stroke-dasharray="7 5"/>
<circle cx="84.0" cy="145.5" r="4" fill="#c2570f"/>
<text x="84.0" y="135.5" font-size="12" text-anchor="start" fill="#c2570f">89.6%</text>
<circle cx="187.4" cy="145.2" r="4" fill="#c2570f"/>
<circle cx="232.0" cy="146.2" r="4" fill="#c2570f"/>
<text x="232.0" y="136.2" font-size="12" text-anchor="middle" fill="#c2570f">87.7%</text>
<circle cx="335.4" cy="152.7" r="4" fill="#c2570f"/>
<circle cx="380.0" cy="154.6" r="4" fill="#c2570f"/>
<text x="380.0" y="144.6" font-size="12" text-anchor="middle" fill="#c2570f">67.1%</text>
<circle cx="483.4" cy="160.2" r="4" fill="#c2570f"/>
<circle cx="528.0" cy="165.5" r="4" fill="#c2570f"/>
<text x="528.0" y="155.5" font-size="12" text-anchor="middle" fill="#c2570f">47.5%</text>
<circle cx="631.4" cy="210.2" r="4" fill="#c2570f"/>
<circle cx="676.0" cy="329.1" r="4" fill="#c2570f"/>
<text x="696.0" y="319.1" font-size="12" text-anchor="middle" fill="#c2570f">0.27%</text>
<circle cx="779.4" cy="410.0" r="4.5" fill="#ffffff" stroke="#c2570f" stroke-width="1.8"/>
<circle cx="824.0" cy="409.2" r="4.5" fill="#ffffff" stroke="#c2570f" stroke-width="1.8"/>
<text x="824.0" y="393.2" font-size="12" text-anchor="end" fill="#c2570f">&lt;0.021%</text>
<text x="454" y="479.0" font-size="12.5" text-anchor="middle" fill="#6b7a85">distance from the nearest timezone border</text>
<text x="20" y="288" font-size="12.5" text-anchor="middle" fill="#6b7a85" transform="rotate(-90 20 288)">border locations affected</text>
</svg>
